<svg version="1.1" xmlns="http://www.w3.org/2000/svg" xmlns:xlink="http://www.w3.org/1999/xlink" width="1012" height="676"><defs/><g><text fill="#eeeeee" stroke="none" font-family="Arial" font-size="24px" font-style="normal" font-weight="normal" text-decoration="none" x="0" y="0">UNREGISTERED</text><text fill="#eeeeee" stroke="none" font-family="Arial" font-size="24px" font-style="normal" font-weight="normal" text-decoration="none" x="0" y="30">UNREGISTERED</text><text fill="#eeeeee" stroke="none" font-family="Arial" font-size="24px" font-style="normal" font-weight="normal" text-decoration="none" x="0" y="60">UNREGISTERED</text><text fill="#eeeeee" stroke="none" font-family="Arial" font-size="24px" font-style="normal" font-weight="normal" text-decoration="none" x="0" y="90">UNREGISTERED</text><text fill="#eeeeee" stroke="none" font-family="Arial" font-size="24px" font-style="normal" font-weight="normal" text-decoration="none" x="0" y="120">UNREGISTERED</text><text fill="#eeeeee" stroke="none" font-family="Arial" font-size="24px" font-style="normal" font-weight="normal" text-decoration="none" x="0" y="150">UNREGISTERED</text><text fill="#eeeeee" stroke="none" font-family="Arial" font-size="24px" font-style="normal" font-weight="normal" text-decoration="none" x="0" y="180">UNREGISTERED</text><text fill="#eeeeee" stroke="none" font-family="Arial" font-size="24px" font-style="normal" font-weight="normal" text-decoration="none" x="0" y="210">UNREGISTERED</text><text fill="#eeeeee" stroke="none" font-family="Arial" font-size="24px" font-style="normal" font-weight="normal" text-decoration="none" x="0" y="240">UNREGISTERED</text><text fill="#eeeeee" stroke="none" font-family="Arial" font-size="24px" font-style="normal" font-weight="normal" text-decoration="none" x="0" y="270">UNREGISTERED</text><text fill="#eeeeee" stroke="none" font-family="Arial" font-size="24px" font-style="normal" font-weight="normal" text-decoration="none" x="0" y="300">UNREGISTERED</text><text fill="#eeeeee" stroke="none" font-family="Arial" font-size="24px" font-style="normal" font-weight="normal" text-decoration="none" x="0" y="330">UNREGISTERED</text><text fill="#eeeeee" stroke="none" font-family="Arial" font-size="24px" font-style="normal" font-weight="normal" text-decoration="none" x="0" y="360">UNREGISTERED</text><text fill="#eeeeee" stroke="none" font-family="Arial" font-size="24px" font-style="normal" font-weight="normal" text-decoration="none" x="0" y="390">UNREGISTERED</text><text fill="#eeeeee" stroke="none" font-family="Arial" font-size="24px" font-style="normal" font-weight="normal" text-decoration="none" x="0" y="420">UNREGISTERED</text><text fill="#eeeeee" stroke="none" font-family="Arial" font-size="24px" font-style="normal" font-weight="normal" text-decoration="none" x="0" y="450">UNREGISTERED</text><text fill="#eeeeee" stroke="none" font-family="Arial" font-size="24px" font-style="normal" font-weight="normal" text-decoration="none" x="0" y="480">UNREGISTERED</text><text fill="#eeeeee" stroke="none" font-family="Arial" font-size="24px" font-style="normal" font-weight="normal" text-decoration="none" x="0" y="510">UNREGISTERED</text><text fill="#eeeeee" stroke="none" font-family="Arial" font-size="24px" font-style="normal" font-weight="normal" text-decoration="none" x="0" y="540">UNREGISTERED</text><text fill="#eeeeee" stroke="none" font-family="Arial" font-size="24px" font-style="normal" font-weight="normal" text-decoration="none" x="0" y="570">UNREGISTERED</text><text fill="#eeeeee" stroke="none" font-family="Arial" font-size="24px" font-style="normal" font-weight="normal" text-decoration="none" x="0" y="600">UNREGISTERED</text><text fill="#eeeeee" stroke="none" font-family="Arial" font-size="24px" font-style="normal" font-weight="normal" text-decoration="none" x="0" y="630">UNREGISTERED</text><text fill="#eeeeee" stroke="none" font-family="Arial" font-size="24px" font-style="normal" font-weight="normal" text-decoration="none" x="0" y="660">UNREGISTERED</text><text fill="#eeeeee" stroke="none" font-family="Arial" font-size="24px" font-style="normal" font-weight="normal" text-decoration="none" x="200" y="0">UNREGISTERED</text><text fill="#eeeeee" stroke="none" font-family="Arial" font-size="24px" font-style="normal" font-weight="normal" text-decoration="none" x="200" y="30">UNREGISTERED</text><text fill="#eeeeee" stroke="none" font-family="Arial" font-size="24px" font-style="normal" font-weight="normal" text-decoration="none" x="200" y="60">UNREGISTERED</text><text fill="#eeeeee" stroke="none" font-family="Arial" font-size="24px" font-style="normal" font-weight="normal" text-decoration="none" x="200" y="90">UNREGISTERED</text><text fill="#eeeeee" stroke="none" font-family="Arial" font-size="24px" font-style="normal" font-weight="normal" text-decoration="none" x="200" y="120">UNREGISTERED</text><text fill="#eeeeee" stroke="none" font-family="Arial" font-size="24px" font-style="normal" font-weight="normal" text-decoration="none" x="200" y="150">UNREGISTERED</text><text fill="#eeeeee" stroke="none" font-family="Arial" font-size="24px" font-style="normal" font-weight="normal" text-decoration="none" x="200" y="180">UNREGISTERED</text><text fill="#eeeeee" stroke="none" font-family="Arial" font-size="24px" font-style="normal" font-weight="normal" text-decoration="none" x="200" y="210">UNREGISTERED</text><text fill="#eeeeee" stroke="none" font-family="Arial" font-size="24px" font-style="normal" font-weight="normal" text-decoration="none" x="200" y="240">UNREGISTERED</text><text fill="#eeeeee" stroke="none" font-family="Arial" font-size="24px" font-style="normal" font-weight="normal" text-decoration="none" x="200" y="270">UNREGISTERED</text><text fill="#eeeeee" stroke="none" font-family="Arial" font-size="24px" font-style="normal" font-weight="normal" text-decoration="none" x="200" y="300">UNREGISTERED</text><text fill="#eeeeee" stroke="none" font-family="Arial" font-size="24px" font-style="normal" font-weight="normal" text-decoration="none" x="200" y="330">UNREGISTERED</text><text fill="#eeeeee" stroke="none" font-family="Arial" font-size="24px" font-style="normal" font-weight="normal" text-decoration="none" x="200" y="360">UNREGISTERED</text><text fill="#eeeeee" stroke="none" font-family="Arial" font-size="24px" font-style="normal" font-weight="normal" text-decoration="none" x="200" y="390">UNREGISTERED</text><text fill="#eeeeee" stroke="none" font-family="Arial" font-size="24px" font-style="normal" font-weight="normal" text-decoration="none" x="200" y="420">UNREGISTERED</text><text fill="#eeeeee" stroke="none" font-family="Arial" font-size="24px" font-style="normal" font-weight="normal" text-decoration="none" x="200" y="450">UNREGISTERED</text><text fill="#eeeeee" stroke="none" font-family="Arial" font-size="24px" font-style="normal" font-weight="normal" text-decoration="none" x="200" y="480">UNREGISTERED</text><text fill="#eeeeee" stroke="none" font-family="Arial" font-size="24px" font-style="normal" font-weight="normal" text-decoration="none" x="200" y="510">UNREGISTERED</text><text fill="#eeeeee" stroke="none" font-family="Arial" font-size="24px" font-style="normal" font-weight="normal" text-decoration="none" x="200" y="540">UNREGISTERED</text><text fill="#eeeeee" stroke="none" font-family="Arial" font-size="24px" font-style="normal" font-weight="normal" text-decoration="none" x="200" y="570">UNREGISTERED</text><text fill="#eeeeee" stroke="none" font-family="Arial" font-size="24px" font-style="normal" font-weight="normal" text-decoration="none" x="200" y="600">UNREGISTERED</text><text fill="#eeeeee" stroke="none" font-family="Arial" font-size="24px" font-style="normal" font-weight="normal" text-decoration="none" x="200" y="630">UNREGISTERED</text><text fill="#eeeeee" stroke="none" font-family="Arial" font-size="24px" font-style="normal" font-weight="normal" text-decoration="none" x="200" y="660">UNREGISTERED</text><text fill="#eeeeee" stroke="none" font-family="Arial" font-size="24px" font-style="normal" font-weight="normal" text-decoration="none" x="400" y="0">UNREGISTERED</text><text fill="#eeeeee" stroke="none" font-family="Arial" font-size="24px" font-style="normal" font-weight="normal" text-decoration="none" x="400" y="30">UNREGISTERED</text><text fill="#eeeeee" stroke="none" font-family="Arial" font-size="24px" font-style="normal" font-weight="normal" text-decoration="none" x="400" y="60">UNREGISTERED</text><text fill="#eeeeee" stroke="none" font-family="Arial" font-size="24px" font-style="normal" font-weight="normal" text-decoration="none" x="400" y="90">UNREGISTERED</text><text fill="#eeeeee" stroke="none" font-family="Arial" font-size="24px" font-style="normal" font-weight="normal" text-decoration="none" x="400" y="120">UNREGISTERED</text><text fill="#eeeeee" stroke="none" font-family="Arial" font-size="24px" font-style="normal" font-weight="normal" text-decoration="none" x="400" y="150">UNREGISTERED</text><text fill="#eeeeee" stroke="none" font-family="Arial" font-size="24px" font-style="normal" font-weight="normal" text-decoration="none" x="400" y="180">UNREGISTERED</text><text fill="#eeeeee" stroke="none" font-family="Arial" font-size="24px" font-style="normal" font-weight="normal" text-decoration="none" x="400" y="210">UNREGISTERED</text><text fill="#eeeeee" stroke="none" font-family="Arial" font-size="24px" font-style="normal" font-weight="normal" text-decoration="none" x="400" y="240">UNREGISTERED</text><text fill="#eeeeee" stroke="none" font-family="Arial" font-size="24px" font-style="normal" font-weight="normal" text-decoration="none" x="400" y="270">UNREGISTERED</text><text fill="#eeeeee" stroke="none" font-family="Arial" font-size="24px" font-style="normal" font-weight="normal" text-decoration="none" x="400" y="300">UNREGISTERED</text><text fill="#eeeeee" stroke="none" font-family="Arial" font-size="24px" font-style="normal" font-weight="normal" text-decoration="none" x="400" y="330">UNREGISTERED</text><text fill="#eeeeee" stroke="none" font-family="Arial" font-size="24px" font-style="normal" font-weight="normal" text-decoration="none" x="400" y="360">UNREGISTERED</text><text fill="#eeeeee" stroke="none" font-family="Arial" font-size="24px" font-style="normal" font-weight="normal" text-decoration="none" x="400" y="390">UNREGISTERED</text><text fill="#eeeeee" stroke="none" font-family="Arial" font-size="24px" font-style="normal" font-weight="normal" text-decoration="none" x="400" y="420">UNREGISTERED</text><text fill="#eeeeee" stroke="none" font-family="Arial" font-size="24px" font-style="normal" font-weight="normal" text-decoration="none" x="400" y="450">UNREGISTERED</text><text fill="#eeeeee" stroke="none" font-family="Arial" font-size="24px" font-style="normal" font-weight="normal" text-decoration="none" x="400" y="480">UNREGISTERED</text><text fill="#eeeeee" stroke="none" font-family="Arial" font-size="24px" font-style="normal" font-weight="normal" text-decoration="none" x="400" y="510">UNREGISTERED</text><text fill="#eeeeee" stroke="none" font-family="Arial" font-size="24px" font-style="normal" font-weight="normal" text-decoration="none" x="400" y="540">UNREGISTERED</text><text fill="#eeeeee" stroke="none" font-family="Arial" font-size="24px" font-style="normal" font-weight="normal" text-decoration="none" x="400" y="570">UNREGISTERED</text><text fill="#eeeeee" stroke="none" font-family="Arial" font-size="24px" font-style="normal" font-weight="normal" text-decoration="none" x="400" y="600">UNREGISTERED</text><text fill="#eeeeee" stroke="none" font-family="Arial" font-size="24px" font-style="normal" font-weight="normal" text-decoration="none" x="400" y="630">UNREGISTERED</text><text fill="#eeeeee" stroke="none" font-family="Arial" font-size="24px" font-style="normal" font-weight="normal" text-decoration="none" x="400" y="660">UNREGISTERED</text><text fill="#eeeeee" stroke="none" font-family="Arial" font-size="24px" font-style="normal" font-weight="normal" text-decoration="none" x="600" y="0">UNREGISTERED</text><text fill="#eeeeee" stroke="none" font-family="Arial" font-size="24px" font-style="normal" font-weight="normal" text-decoration="none" x="600" y="30">UNREGISTERED</text><text fill="#eeeeee" stroke="none" font-family="Arial" font-size="24px" font-style="normal" font-weight="normal" text-decoration="none" x="600" y="60">UNREGISTERED</text><text fill="#eeeeee" stroke="none" font-family="Arial" font-size="24px" font-style="normal" font-weight="normal" text-decoration="none" x="600" y="90">UNREGISTERED</text><text fill="#eeeeee" stroke="none" font-family="Arial" font-size="24px" font-style="normal" font-weight="normal" text-decoration="none" x="600" y="120">UNREGISTERED</text><text fill="#eeeeee" stroke="none" font-family="Arial" font-size="24px" font-style="normal" font-weight="normal" text-decoration="none" x="600" y="150">UNREGISTERED</text><text fill="#eeeeee" stroke="none" font-family="Arial" font-size="24px" font-style="normal" font-weight="normal" text-decoration="none" x="600" y="180">UNREGISTERED</text><text fill="#eeeeee" stroke="none" font-family="Arial" font-size="24px" font-style="normal" font-weight="normal" text-decoration="none" x="600" y="210">UNREGISTERED</text><text fill="#eeeeee" stroke="none" font-family="Arial" font-size="24px" font-style="normal" font-weight="normal" text-decoration="none" x="600" y="240">UNREGISTERED</text><text fill="#eeeeee" stroke="none" font-family="Arial" font-size="24px" font-style="normal" font-weight="normal" text-decoration="none" x="600" y="270">UNREGISTERED</text><text fill="#eeeeee" stroke="none" font-family="Arial" font-size="24px" font-style="normal" font-weight="normal" text-decoration="none" x="600" y="300">UNREGISTERED</text><text fill="#eeeeee" stroke="none" font-family="Arial" font-size="24px" font-style="normal" font-weight="normal" text-decoration="none" x="600" y="330">UNREGISTERED</text><text fill="#eeeeee" stroke="none" font-family="Arial" font-size="24px" font-style="normal" font-weight="normal" text-decoration="none" x="600" y="360">UNREGISTERED</text><text fill="#eeeeee" stroke="none" font-family="Arial" font-size="24px" font-style="normal" font-weight="normal" text-decoration="none" x="600" y="390">UNREGISTERED</text><text fill="#eeeeee" stroke="none" font-family="Arial" font-size="24px" font-style="normal" font-weight="normal" text-decoration="none" x="600" y="420">UNREGISTERED</text><text fill="#eeeeee" stroke="none" font-family="Arial" font-size="24px" font-style="normal" font-weight="normal" text-decoration="none" x="600" y="450">UNREGISTERED</text><text fill="#eeeeee" stroke="none" font-family="Arial" font-size="24px" font-style="normal" font-weight="normal" text-decoration="none" x="600" y="480">UNREGISTERED</text><text fill="#eeeeee" stroke="none" font-family="Arial" font-size="24px" font-style="normal" font-weight="normal" text-decoration="none" x="600" y="510">UNREGISTERED</text><text fill="#eeeeee" stroke="none" font-family="Arial" font-size="24px" font-style="normal" font-weight="normal" text-decoration="none" x="600" y="540">UNREGISTERED</text><text fill="#eeeeee" stroke="none" font-family="Arial" font-size="24px" font-style="normal" font-weight="normal" text-decoration="none" x="600" y="570">UNREGISTERED</text><text fill="#eeeeee" stroke="none" font-family="Arial" font-size="24px" font-style="normal" font-weight="normal" text-decoration="none" x="600" y="600">UNREGISTERED</text><text fill="#eeeeee" stroke="none" font-family="Arial" font-size="24px" font-style="normal" font-weight="normal" text-decoration="none" x="600" y="630">UNREGISTERED</text><text fill="#eeeeee" stroke="none" font-family="Arial" font-size="24px" font-style="normal" font-weight="normal" text-decoration="none" x="600" y="660">UNREGISTERED</text><text fill="#eeeeee" stroke="none" font-family="Arial" font-size="24px" font-style="normal" font-weight="normal" text-decoration="none" x="800" y="0">UNREGISTERED</text><text fill="#eeeeee" stroke="none" font-family="Arial" font-size="24px" font-style="normal" font-weight="normal" text-decoration="none" x="800" y="30">UNREGISTERED</text><text fill="#eeeeee" stroke="none" font-family="Arial" font-size="24px" font-style="normal" font-weight="normal" text-decoration="none" x="800" y="60">UNREGISTERED</text><text fill="#eeeeee" stroke="none" font-family="Arial" font-size="24px" font-style="normal" font-weight="normal" text-decoration="none" x="800" y="90">UNREGISTERED</text><text fill="#eeeeee" stroke="none" font-family="Arial" font-size="24px" font-style="normal" font-weight="normal" text-decoration="none" x="800" y="120">UNREGISTERED</text><text fill="#eeeeee" stroke="none" font-family="Arial" font-size="24px" font-style="normal" font-weight="normal" text-decoration="none" x="800" y="150">UNREGISTERED</text><text fill="#eeeeee" stroke="none" font-family="Arial" font-size="24px" font-style="normal" font-weight="normal" text-decoration="none" x="800" y="180">UNREGISTERED</text><text fill="#eeeeee" stroke="none" font-family="Arial" font-size="24px" font-style="normal" font-weight="normal" text-decoration="none" x="800" y="210">UNREGISTERED</text><text fill="#eeeeee" stroke="none" font-family="Arial" font-size="24px" font-style="normal" font-weight="normal" text-decoration="none" x="800" y="240">UNREGISTERED</text><text fill="#eeeeee" stroke="none" font-family="Arial" font-size="24px" font-style="normal" font-weight="normal" text-decoration="none" x="800" y="270">UNREGISTERED</text><text fill="#eeeeee" stroke="none" font-family="Arial" font-size="24px" font-style="normal" font-weight="normal" text-decoration="none" x="800" y="300">UNREGISTERED</text><text fill="#eeeeee" stroke="none" font-family="Arial" font-size="24px" font-style="normal" font-weight="normal" text-decoration="none" x="800" y="330">UNREGISTERED</text><text fill="#eeeeee" stroke="none" font-family="Arial" font-size="24px" font-style="normal" font-weight="normal" text-decoration="none" x="800" y="360">UNREGISTERED</text><text fill="#eeeeee" stroke="none" font-family="Arial" font-size="24px" font-style="normal" font-weight="normal" text-decoration="none" x="800" y="390">UNREGISTERED</text><text fill="#eeeeee" stroke="none" font-family="Arial" font-size="24px" font-style="normal" font-weight="normal" text-decoration="none" x="800" y="420">UNREGISTERED</text><text fill="#eeeeee" stroke="none" font-family="Arial" font-size="24px" font-style="normal" font-weight="normal" text-decoration="none" x="800" y="450">UNREGISTERED</text><text fill="#eeeeee" stroke="none" font-family="Arial" font-size="24px" font-style="normal" font-weight="normal" text-decoration="none" x="800" y="480">UNREGISTERED</text><text fill="#eeeeee" stroke="none" font-family="Arial" font-size="24px" font-style="normal" font-weight="normal" text-decoration="none" x="800" y="510">UNREGISTERED</text><text fill="#eeeeee" stroke="none" font-family="Arial" font-size="24px" font-style="normal" font-weight="normal" text-decoration="none" x="800" y="540">UNREGISTERED</text><text fill="#eeeeee" stroke="none" font-family="Arial" font-size="24px" font-style="normal" font-weight="normal" text-decoration="none" x="800" y="570">UNREGISTERED</text><text fill="#eeeeee" stroke="none" font-family="Arial" font-size="24px" font-style="normal" font-weight="normal" text-decoration="none" x="800" y="600">UNREGISTERED</text><text fill="#eeeeee" stroke="none" font-family="Arial" font-size="24px" font-style="normal" font-weight="normal" text-decoration="none" x="800" y="630">UNREGISTERED</text><text fill="#eeeeee" stroke="none" font-family="Arial" font-size="24px" font-style="normal" font-weight="normal" text-decoration="none" x="800" y="660">UNREGISTERED</text><text fill="#eeeeee" stroke="none" font-family="Arial" font-size="24px" font-style="normal" font-weight="normal" text-decoration="none" x="1000" y="0">UNREGISTERED</text><text fill="#eeeeee" stroke="none" font-family="Arial" font-size="24px" font-style="normal" font-weight="normal" text-decoration="none" x="1000" y="30">UNREGISTERED</text><text fill="#eeeeee" stroke="none" font-family="Arial" font-size="24px" font-style="normal" font-weight="normal" text-decoration="none" x="1000" y="60">UNREGISTERED</text><text fill="#eeeeee" stroke="none" font-family="Arial" font-size="24px" font-style="normal" font-weight="normal" text-decoration="none" x="1000" y="90">UNREGISTERED</text><text fill="#eeeeee" stroke="none" font-family="Arial" font-size="24px" font-style="normal" font-weight="normal" text-decoration="none" x="1000" y="120">UNREGISTERED</text><text fill="#eeeeee" stroke="none" font-family="Arial" font-size="24px" font-style="normal" font-weight="normal" text-decoration="none" x="1000" y="150">UNREGISTERED</text><text fill="#eeeeee" stroke="none" font-family="Arial" font-size="24px" font-style="normal" font-weight="normal" text-decoration="none" x="1000" y="180">UNREGISTERED</text><text fill="#eeeeee" stroke="none" font-family="Arial" font-size="24px" font-style="normal" font-weight="normal" text-decoration="none" x="1000" y="210">UNREGISTERED</text><text fill="#eeeeee" stroke="none" font-family="Arial" font-size="24px" font-style="normal" font-weight="normal" text-decoration="none" x="1000" y="240">UNREGISTERED</text><text fill="#eeeeee" stroke="none" font-family="Arial" font-size="24px" font-style="normal" font-weight="normal" text-decoration="none" x="1000" y="270">UNREGISTERED</text><text fill="#eeeeee" stroke="none" font-family="Arial" font-size="24px" font-style="normal" font-weight="normal" text-decoration="none" x="1000" y="300">UNREGISTERED</text><text fill="#eeeeee" stroke="none" font-family="Arial" font-size="24px" font-style="normal" font-weight="normal" text-decoration="none" x="1000" y="330">UNREGISTERED</text><text fill="#eeeeee" stroke="none" font-family="Arial" font-size="24px" font-style="normal" font-weight="normal" text-decoration="none" x="1000" y="360">UNREGISTERED</text><text fill="#eeeeee" stroke="none" font-family="Arial" font-size="24px" font-style="normal" font-weight="normal" text-decoration="none" x="1000" y="390">UNREGISTERED</text><text fill="#eeeeee" stroke="none" font-family="Arial" font-size="24px" font-style="normal" font-weight="normal" text-decoration="none" x="1000" y="420">UNREGISTERED</text><text fill="#eeeeee" stroke="none" font-family="Arial" font-size="24px" font-style="normal" font-weight="normal" text-decoration="none" x="1000" y="450">UNREGISTERED</text><text fill="#eeeeee" stroke="none" font-family="Arial" font-size="24px" font-style="normal" font-weight="normal" text-decoration="none" x="1000" y="480">UNREGISTERED</text><text fill="#eeeeee" stroke="none" font-family="Arial" font-size="24px" font-style="normal" font-weight="normal" text-decoration="none" x="1000" y="510">UNREGISTERED</text><text fill="#eeeeee" stroke="none" font-family="Arial" font-size="24px" font-style="normal" font-weight="normal" text-decoration="none" x="1000" y="540">UNREGISTERED</text><text fill="#eeeeee" stroke="none" font-family="Arial" font-size="24px" font-style="normal" font-weight="normal" text-decoration="none" x="1000" y="570">UNREGISTERED</text><text fill="#eeeeee" stroke="none" font-family="Arial" font-size="24px" font-style="normal" font-weight="normal" text-decoration="none" x="1000" y="600">UNREGISTERED</text><text fill="#eeeeee" stroke="none" font-family="Arial" font-size="24px" font-style="normal" font-weight="normal" text-decoration="none" x="1000" y="630">UNREGISTERED</text><text fill="#eeeeee" stroke="none" font-family="Arial" font-size="24px" font-style="normal" font-weight="normal" text-decoration="none" x="1000" y="660">UNREGISTERED</text><g transform="translate(-62,-86) scale(1,1)"><rect fill="#C0C0C0" stroke="none" x="79" y="103" width="396.8" height="15" opacity="0.2"/></g><g transform="translate(-62,-86) scale(1,1)"><rect fill="#C0C0C0" stroke="none" x="79" y="117" width="992" height="642" opacity="0.2"/></g><g transform="translate(-62,-86) scale(1,1)"><rect fill="#ffffff" stroke="none" x="72" y="111" width="992" height="641"/></g><g transform="translate(-62,-86) scale(1,1)"><path fill="none" stroke="#000000" d="M 72 111 L 1064 111 L 1064 752 L 72 752 L 72 111 Z Z" stroke-miterlimit="10"/></g><g transform="translate(-62,-86) scale(1,1)"><rect fill="#ffffff" stroke="none" x="72" y="96" width="396.8" height="15"/></g><g transform="translate(-62,-86) scale(1,1)"><path fill="none" stroke="#000000" d="M 72 96 L 468.8 96 L 468.8 111 L 72 111 L 72 96 Z Z" stroke-miterlimit="10"/></g><g transform="translate(-62,-86) scale(1,1)"><rect fill="#ffffff" stroke="none" x="72" y="110" width="992" height="642"/></g><g transform="translate(-62,-86) scale(1,1)"><path fill="none" stroke="#000000" d="M 72 110 L 1064 110 L 1064 752 L 72 752 L 72 110 Z Z" stroke-miterlimit="10"/></g><g transform="translate(-62,-86) scale(1,1)"><g><path fill="none" stroke="none"/><text fill="#000000" stroke="none" font-family="Arial" font-size="13px" font-style="normal" font-weight="bold" text-decoration="none" x="525.73095703125" y="130.5">uc DietCSharp</text></g></g><g transform="translate(-62,-86) scale(1,1)"><path fill="#C0C0C0" stroke="none" d="M 423 520 C 423 510.6111584 481.8745488 503 554.5 503 C 627.1254512 503 686 510.6111584 686 520 C 686 529.3888416 627.1254512 537 554.5 537 C 481.8745488 537 423 529.3888416 423 520 Z" opacity="0.2"/></g><g transform="translate(-62,-86) scale(1,1)"><path fill="#ffffff" stroke="none" d="M 416 513 C 416 503.6111584 474.8745488 496 547.5 496 C 620.1254512 496 679 503.6111584 679 513 C 679 522.3888416 620.1254512 530 547.5 530 C 474.8745488 530 416 522.3888416 416 513 Z"/></g><g transform="translate(-62,-86) scale(1,1)"><path fill="none" stroke="#000000" d="M 416 513 C 416 503.6111584 474.8745488 496 547.5 496 C 620.1254512 496 679 503.6111584 679 513 C 679 522.3888416 620.1254512 530 547.5 530 C 474.8745488 530 416 522.3888416 416 513 Z" stroke-miterlimit="10"/></g><g transform="translate(-62,-86) scale(1,1)"><g><path fill="none" stroke="none"/><text fill="#000000" stroke="none" font-family="Arial" font-size="13px" font-style="normal" font-weight="bold" text-decoration="none" x="464.393310546875" y="520">Consultar Sugestão de Dieta</text></g></g><g transform="translate(-62,-86) scale(1,1)"><path fill="none" stroke="#000000" d="M 209 368 L 444 289" stroke-miterlimit="10"/></g><g transform="translate(-62,-86) scale(1,1)"><path fill="none" stroke="#000000" d="M 209 379 L 447 360" stroke-miterlimit="10"/></g><g transform="translate(-62,-86) scale(1,1)"><path fill="none" stroke="#000000" d="M 209 389 L 431 419" stroke-miterlimit="10"/></g><g transform="translate(-62,-86) scale(1,1)"><path fill="none" stroke="#000000" d="M 183 541 L 415 523" stroke-miterlimit="10"/></g><g transform="translate(-62,-86) scale(1,1)"><path fill="#C0C0C0" stroke="none" d="M 375 271 C 375 257.7451648 442.8288528 247 526.5 247 C 610.1711472 247 678 257.7451648 678 271 C 678 284.2548352 610.1711472 295 526.5 295 C 442.8288528 295 375 284.2548352 375 271 Z" opacity="0.2"/></g><g transform="translate(-62,-86) scale(1,1)"><path fill="#ffffff" stroke="none" d="M 368 264 C 368 250.7451648 435.8288528 240 519.5 240 C 603.1711472 240 671 250.7451648 671 264 C 671 277.2548352 603.1711472 288 519.5 288 C 435.8288528 288 368 277.2548352 368 264 Z"/></g><g transform="translate(-62,-86) scale(1,1)"><path fill="none" stroke="#000000" d="M 368 264 C 368 250.7451648 435.8288528 240 519.5 240 C 603.1711472 240 671 250.7451648 671 264 C 671 277.2548352 603.1711472 288 519.5 288 C 435.8288528 288 368 277.2548352 368 264 Z" stroke-miterlimit="10"/></g><g transform="translate(-62,-86) scale(1,1)"><g><path fill="none" stroke="none"/><text fill="#000000" stroke="none" font-family="Arial" font-size="13px" font-style="normal" font-weight="bold" text-decoration="none" x="430.6201171875" y="271">Cadastrar porção de alimentos</text></g></g><g transform="translate(-62,-86) scale(1,1)"><path fill="#C0C0C0" stroke="none" d="M 455 360 C 455 350.6111584 494.17508 343 542.5 343 C 590.82492 343 630 350.6111584 630 360 C 630 369.3888416 590.82492 377 542.5 377 C 494.17508 377 455 369.3888416 455 360 Z" opacity="0.2"/></g><g transform="translate(-62,-86) scale(1,1)"><path fill="#ffffff" stroke="none" d="M 448 353 C 448 343.6111584 487.17508 336 535.5 336 C 583.82492 336 623 343.6111584 623 353 C 623 362.3888416 583.82492 370 535.5 370 C 487.17508 370 448 362.3888416 448 353 Z"/></g><g transform="translate(-62,-86) scale(1,1)"><path fill="none" stroke="#000000" d="M 448 353 C 448 343.6111584 487.17508 336 535.5 336 C 583.82492 336 623 343.6111584 623 353 C 623 362.3888416 583.82492 370 535.5 370 C 487.17508 370 448 362.3888416 448 353 Z" stroke-miterlimit="10"/></g><g transform="translate(-62,-86) scale(1,1)"><g><path fill="none" stroke="none"/><text fill="#000000" stroke="none" font-family="Arial" font-size="13px" font-style="normal" font-weight="bold" text-decoration="none" x="489.98095703125" y="360">Cadastrar Dieta</text></g></g><g transform="translate(-62,-86) scale(1,1)"><path fill="#C0C0C0" stroke="none" d="M 439 440 C 439 430.6111584 486.010096 423 544 423 C 601.989904 423 649 430.6111584 649 440 C 649 449.3888416 601.989904 457 544 457 C 486.010096 457 439 449.3888416 439 440 Z" opacity="0.2"/></g><g transform="translate(-62,-86) scale(1,1)"><path fill="#ffffff" stroke="none" d="M 432 433 C 432 423.6111584 479.010096 416 537 416 C 594.989904 416 642 423.6111584 642 433 C 642 442.3888416 594.989904 450 537 450 C 479.010096 450 432 442.3888416 432 433 Z"/></g><g transform="translate(-62,-86) scale(1,1)"><path fill="none" stroke="#000000" d="M 432 433 C 432 423.6111584 479.010096 416 537 416 C 594.989904 416 642 423.6111584 642 433 C 642 442.3888416 594.989904 450 537 450 C 479.010096 450 432 442.3888416 432 433 Z" stroke-miterlimit="10"/></g><g transform="translate(-62,-86) scale(1,1)"><g><path fill="none" stroke="none"/><text fill="#000000" stroke="none" font-family="Arial" font-size="13px" font-style="normal" font-weight="bold" text-decoration="none" x="478.109619140625" y="440">Cadastrar Pacientes</text></g></g><g transform="translate(-62,-86) scale(1,1)"><path fill="#C0C0C0" stroke="none" d="M 727 448 C 727 438.6111584 758.340064 431 797 431 C 835.659936 431 867 438.6111584 867 448 C 867 457.3888416 835.659936 465 797 465 C 758.340064 465 727 457.3888416 727 448 Z" opacity="0.2"/></g><g transform="translate(-62,-86) scale(1,1)"><path fill="#ffffff" stroke="none" d="M 720 441 C 720 431.6111584 751.340064 424 790 424 C 828.659936 424 860 431.6111584 860 441 C 860 450.3888416 828.659936 458 790 458 C 751.340064 458 720 450.3888416 720 441 Z"/></g><g transform="translate(-62,-86) scale(1,1)"><path fill="none" stroke="#000000" d="M 720 441 C 720 431.6111584 751.340064 424 790 424 C 828.659936 424 860 431.6111584 860 441 C 860 450.3888416 828.659936 458 790 458 C 751.340064 458 720 450.3888416 720 441 Z" stroke-miterlimit="10"/></g><g transform="translate(-62,-86) scale(1,1)"><g><path fill="none" stroke="none"/><text fill="#000000" stroke="none" font-family="Arial" font-size="13px" font-style="normal" font-weight="bold" text-decoration="none" x="748.095947265625" y="448">Associar Dieta</text></g></g><g transform="translate(-62,-86) scale(1,1)"><path fill="none" stroke="#000000" d="M 643 436 L 719 439" stroke-miterlimit="10" stroke-dasharray="3"/></g><g transform="translate(-62,-86) scale(1,1)"><path fill="none" stroke="#000000" d="M 708.6791976293214 442.8053959617094 L 719 439 L 709.0112693667824 434.3929119460316" stroke-miterlimit="10"/></g><g transform="translate(-62,-86) scale(1,1)"><g><path fill="none" stroke="none"/><text fill="#000000" stroke="none" font-family="Arial" font-size="13px" font-style="normal" font-weight="normal" text-decoration="none" x="654.5" y="413.5">«include»</text></g></g><g transform="translate(-62,-86) scale(1,1)"><path fill="#C0C0C0" stroke="none" d="M 711 352 C 711 342.6111584 770.9938368 335 845 335 C 919.0061632 335 979 342.6111584 979 352 C 979 361.3888416 919.0061632 369 845 369 C 770.9938368 369 711 361.3888416 711 352 Z" opacity="0.2"/></g><g transform="translate(-62,-86) scale(1,1)"><path fill="#ffffff" stroke="none" d="M 704 345 C 704 335.6111584 763.9938368 328 838 328 C 912.0061632 328 972 335.6111584 972 345 C 972 354.3888416 912.0061632 362 838 362 C 763.9938368 362 704 354.3888416 704 345 Z"/></g><g transform="translate(-62,-86) scale(1,1)"><path fill="none" stroke="#000000" d="M 704 345 C 704 335.6111584 763.9938368 328 838 328 C 912.0061632 328 972 335.6111584 972 345 C 972 354.3888416 912.0061632 362 838 362 C 763.9938368 362 704 354.3888416 704 345 Z" stroke-miterlimit="10"/></g><g transform="translate(-62,-86) scale(1,1)"><g><path fill="none" stroke="none"/><text fill="#000000" stroke="none" font-family="Arial" font-size="13px" font-style="normal" font-weight="bold" text-decoration="none" x="754.544189453125" y="352">Associar Porção de Alimento</text></g></g><g transform="translate(-62,-86) scale(1,1)"><path fill="none" stroke="#000000" d="M 624 351 L 703 349" stroke-miterlimit="10" stroke-dasharray="3"/></g><g transform="translate(-62,-86) scale(1,1)"><path fill="none" stroke="#000000" d="M 692.9471162579671 353.4653699140351 L 703 349 L 692.7340443888079 345.0490310822491" stroke-miterlimit="10"/></g><g transform="translate(-62,-86) scale(1,1)"><g><path fill="none" stroke="none"/><text fill="#000000" stroke="none" font-family="Arial" font-size="13px" font-style="normal" font-weight="normal" text-decoration="none" x="634.5" y="326.5">«include»</text></g></g><g transform="translate(-62,-86) scale(1,1)"><path fill="#C0C0C0" stroke="none" d="M 775 272 C 775 262.6111584 813.5035072000001 255 861 255 C 908.4964927999999 255 947 262.6111584 947 272 C 947 281.3888416 908.4964927999999 289 861 289 C 813.5035072000001 289 775 281.3888416 775 272 Z" opacity="0.2"/></g><g transform="translate(-62,-86) scale(1,1)"><path fill="#ffffff" stroke="none" d="M 768 265 C 768 255.6111584 806.5035072000001 248 854 248 C 901.4964927999999 248 940 255.6111584 940 265 C 940 274.3888416 901.4964927999999 282 854 282 C 806.5035072000001 282 768 274.3888416 768 265 Z"/></g><g transform="translate(-62,-86) scale(1,1)"><path fill="none" stroke="#000000" d="M 768 265 C 768 255.6111584 806.5035072000001 248 854 248 C 901.4964927999999 248 940 255.6111584 940 265 C 940 274.3888416 901.4964927999999 282 854 282 C 806.5035072000001 282 768 274.3888416 768 265 Z" stroke-miterlimit="10"/></g><g transform="translate(-62,-86) scale(1,1)"><g><path fill="none" stroke="none"/><text fill="#000000" stroke="none" font-family="Arial" font-size="13px" font-style="normal" font-weight="bold" text-decoration="none" x="801.615966796875" y="272">Associar Refeição</text></g></g><g transform="translate(-62,-86) scale(1,1)"><path fill="none" stroke="#000000" d="M 672 264 L 767 265" stroke-miterlimit="10" stroke-dasharray="3"/></g><g transform="translate(-62,-86) scale(1,1)"><path fill="none" stroke="#000000" d="M 756.7935798661309 269.1023149624271 L 767 265 L 756.8821963832071 260.6837458401975" stroke-miterlimit="10"/></g><g transform="translate(-62,-86) scale(1,1)"><g><path fill="none" stroke="none"/><text fill="#000000" stroke="none" font-family="Arial" font-size="13px" font-style="normal" font-weight="normal" text-decoration="none" x="691.5" y="240.5">«include»</text></g></g><g transform="translate(-62,-86) scale(1,1)"><path fill="#C0C0C0" stroke="none" d="M 751 528 C 751 518.6111584 812.7846976 511 889 511 C 965.2153024 511 1027 518.6111584 1027 528 C 1027 537.3888416 965.2153024 545 889 545 C 812.7846976 545 751 537.3888416 751 528 Z" opacity="0.2"/></g><g transform="translate(-62,-86) scale(1,1)"><path fill="#ffffff" stroke="none" d="M 744 521 C 744 511.6111584 805.7846976 504 882 504 C 958.2153024 504 1020 511.6111584 1020 521 C 1020 530.3888416 958.2153024 538 882 538 C 805.7846976 538 744 530.3888416 744 521 Z"/></g><g transform="translate(-62,-86) scale(1,1)"><path fill="none" stroke="#000000" d="M 744 521 C 744 511.6111584 805.7846976 504 882 504 C 958.2153024 504 1020 511.6111584 1020 521 C 1020 530.3888416 958.2153024 538 882 538 C 805.7846976 538 744 530.3888416 744 521 Z" stroke-miterlimit="10"/></g><g transform="translate(-62,-86) scale(1,1)"><g><path fill="none" stroke="none"/><text fill="#000000" stroke="none" font-family="Arial" font-size="13px" font-style="normal" font-weight="bold" text-decoration="none" x="795.649658203125" y="528">Consultar Porção de Alimento</text></g></g><g transform="translate(-62,-86) scale(1,1)"><path fill="none" stroke="#000000" d="M 680 516 L 743 518" stroke-miterlimit="10" stroke-dasharray="3"/></g><g transform="translate(-62,-86) scale(1,1)"><path fill="none" stroke="#000000" d="M 732.7088741046816 521.8849360106323 L 743 518 L 732.976010495782 513.4701396909697" stroke-miterlimit="10"/></g><g transform="translate(-62,-86) scale(1,1)"><g><path fill="none" stroke="none"/><text fill="#000000" stroke="none" font-family="Arial" font-size="13px" font-style="normal" font-weight="normal" text-decoration="none" x="683.5" y="493.5">«include»</text></g></g><g transform="translate(-62,-86) scale(1,1)"><path fill="#C0C0C0" stroke="none" d="M 223 696 C 223 686.6111584 320.378056 679 440.5 679 C 560.621944 679 658 686.6111584 658 696 C 658 705.3888416 560.621944 713 440.5 713 C 320.378056 713 223 705.3888416 223 696 Z" opacity="0.2"/></g><g transform="translate(-62,-86) scale(1,1)"><path fill="#ffffff" stroke="none" d="M 216 689 C 216 679.6111584 313.378056 672 433.5 672 C 553.621944 672 651 679.6111584 651 689 C 651 698.3888416 553.621944 706 433.5 706 C 313.378056 706 216 698.3888416 216 689 Z"/></g><g transform="translate(-62,-86) scale(1,1)"><path fill="none" stroke="#000000" d="M 216 689 C 216 679.6111584 313.378056 672 433.5 672 C 553.621944 672 651 679.6111584 651 689 C 651 698.3888416 553.621944 706 433.5 706 C 313.378056 706 216 698.3888416 216 689 Z" stroke-miterlimit="10"/></g><g transform="translate(-62,-86) scale(1,1)"><g><path fill="none" stroke="none"/><text fill="#000000" stroke="none" font-family="Arial" font-size="13px" font-style="normal" font-weight="bold" text-decoration="none" x="294.883056640625" y="696">Visualizar Relatório Consumo diário de alimento</text></g></g><g transform="translate(-62,-86) scale(1,1)"><path fill="none" stroke="#000000" d="M 183 560 L 398 671" stroke-miterlimit="10"/></g><g transform="translate(-62,-86) scale(1,1)"><path fill="none" stroke="#000000" d="M 183 546 L 359 560" stroke-miterlimit="10"/></g><g transform="translate(-62,-86) scale(1,1)"><path fill="none" stroke="#000000" d="M 200 424 L 417 671" stroke-miterlimit="10"/></g><g transform="translate(-62,-86) scale(1,1)"><path fill="#C0C0C0" stroke="none" d="M 367 584 C 367 574.6111584 463.258768 567 582 567 C 700.741232 567 797 574.6111584 797 584 C 797 593.3888416 700.741232 601 582 601 C 463.258768 601 367 593.3888416 367 584 Z" opacity="0.2"/></g><g transform="translate(-62,-86) scale(1,1)"><path fill="#ffffff" stroke="none" d="M 360 577 C 360 567.6111584 456.258768 560 575 560 C 693.741232 560 790 567.6111584 790 577 C 790 586.3888416 693.741232 594 575 594 C 456.258768 594 360 586.3888416 360 577 Z"/></g><g transform="translate(-62,-86) scale(1,1)"><path fill="none" stroke="#000000" d="M 360 577 C 360 567.6111584 456.258768 560 575 560 C 693.741232 560 790 567.6111584 790 577 C 790 586.3888416 693.741232 594 575 594 C 456.258768 594 360 586.3888416 360 577 Z" stroke-miterlimit="10"/></g><g transform="translate(-62,-86) scale(1,1)"><g><path fill="none" stroke="none"/><text fill="#000000" stroke="none" font-family="Arial" font-size="13px" font-style="normal" font-weight="bold" text-decoration="none" x="437.712890625" y="584">Cadastrar Registro Consumo diário de alimento</text></g></g><g transform="translate(-62,-86) scale(1,1)"><path fill="none" stroke="#000000" d="M 545 495 L 539 451" stroke-miterlimit="10" stroke-dasharray="3"/></g><g transform="translate(-62,-86) scale(1,1)"><path fill="none" stroke="#000000" d="M 544.544028754255 460.5007234025622 L 539 451 L 536.2021943830974 461.6382462713564" stroke-miterlimit="10"/></g><g transform="translate(-62,-86) scale(1,1)"><g><path fill="none" stroke="none"/><text fill="#000000" stroke="none" font-family="Arial" font-size="13px" font-style="normal" font-weight="normal" text-decoration="none" x="484.5" y="483.5">«include»</text></g></g><g transform="translate(-62,-86) scale(1,1)"><path fill="none" stroke="#000000" d="M 537 415 L 535 371" stroke-miterlimit="10" stroke-dasharray="3"/></g><g transform="translate(-62,-86) scale(1,1)"><path fill="none" stroke="#000000" d="M 539.6666391016781 380.9610481122565 L 535 371 L 531.2562874862449 381.3433368220489" stroke-miterlimit="10"/></g><g transform="translate(-62,-86) scale(1,1)"><g><path fill="none" stroke="none"/><text fill="#000000" stroke="none" font-family="Arial" font-size="13px" font-style="normal" font-weight="normal" text-decoration="none" x="478.5" y="400.5">«include»</text></g></g><g transform="translate(-62,-86) scale(1,1)"><path fill="none" stroke="#000000" d="M 532 335 L 523 289" stroke-miterlimit="10" stroke-dasharray="3"/></g><g transform="translate(-62,-86) scale(1,1)"><path fill="none" stroke="#000000" d="M 529.0825413308445 298.1652981925614 L 523 289 L 520.8201617183306 299.78185072544454" stroke-miterlimit="10"/></g><g transform="translate(-62,-86) scale(1,1)"><g><path fill="none" stroke="none"/><text fill="#000000" stroke="none" font-family="Arial" font-size="13px" font-style="normal" font-weight="normal" text-decoration="none" x="469.5" y="323.5">«include»</text></g></g><g transform="translate(-62,-86) scale(1,1)"><path fill="none" stroke="#000000" d="M 456 671 L 552 595" stroke-miterlimit="10" stroke-dasharray="3"/></g><g transform="translate(-62,-86) scale(1,1)"><path fill="none" stroke="#000000" d="M 546.6448572780355 604.6084570263591 L 552 595 L 541.419137146999 598.0075473871552" stroke-miterlimit="10"/></g><g transform="translate(-62,-86) scale(1,1)"><g><path fill="none" stroke="none"/><text fill="#000000" stroke="none" font-family="Arial" font-size="13px" font-style="normal" font-weight="normal" text-decoration="none" x="457.5" y="615.5">«include»</text></g></g><g transform="translate(-62,-86) scale(1,1)"><path fill="#ffffff" stroke="none" d="M 160.24162571022728 185.68 C 160.24162571022728 180.886167936 164.12746803517274 177 168.9208984375 177 C 173.71432883982726 177 177.60017116477272 180.886167936 177.60017116477272 185.68 C 177.60017116477272 190.47383206400002 173.71432883982726 194.36 168.9208984375 194.36 C 164.12746803517274 194.36 160.24162571022728 190.47383206400002 160.24162571022728 185.68 Z"/></g><g transform="translate(-62,-86) scale(1,1)"><path fill="none" stroke="#000000" d="M 160.24162571022728 185.68 C 160.24162571022728 180.886167936 164.12746803517274 177 168.9208984375 177 C 173.71432883982726 177 177.60017116477272 180.886167936 177.60017116477272 185.68 C 177.60017116477272 190.47383206400002 173.71432883982726 194.36 168.9208984375 194.36 C 164.12746803517274 194.36 160.24162571022728 190.47383206400002 160.24162571022728 185.68 Z" stroke-miterlimit="10"/></g><g transform="translate(-62,-86) scale(1,1)"><path fill="none" stroke="#000000" d="M 168.9208984375 194.36 L 168.9208984375 211.64" stroke-miterlimit="10"/></g><g transform="translate(-62,-86) scale(1,1)"><path fill="none" stroke="#000000" d="M 159.73108025568183 200.84 L 178.11071661931817 200.84" stroke-miterlimit="10"/></g><g transform="translate(-62,-86) scale(1,1)"><path fill="none" stroke="#000000" d="M 168.9208984375 211.64 L 156.15726207386365 229" stroke-miterlimit="10"/></g><g transform="translate(-62,-86) scale(1,1)"><path fill="none" stroke="#000000" d="M 168.9208984375 211.64 L 181.68453480113635 229" stroke-miterlimit="10"/></g><g transform="translate(-62,-86) scale(1,1)"><g><path fill="none" stroke="none"/><text fill="#000000" stroke="none" font-family="Arial" font-size="13px" font-style="normal" font-weight="bold" text-decoration="none" x="128.82275390625" y="249.5">Administrador</text></g></g><g transform="translate(-62,-86) scale(1,1)"><path fill="#ffffff" stroke="none" d="M 155.54753391335228 353.68 C 155.54753391335228 348.886167936 159.43337623829774 345 164.226806640625 345 C 169.02023704295226 345 172.90607936789772 348.886167936 172.90607936789772 353.68 C 172.90607936789772 358.473832064 169.02023704295226 362.36 164.226806640625 362.36 C 159.43337623829774 362.36 155.54753391335228 358.473832064 155.54753391335228 353.68 Z"/></g><g transform="translate(-62,-86) scale(1,1)"><path fill="none" stroke="#000000" d="M 155.54753391335228 353.68 C 155.54753391335228 348.886167936 159.43337623829774 345 164.226806640625 345 C 169.02023704295226 345 172.90607936789772 348.886167936 172.90607936789772 353.68 C 172.90607936789772 358.473832064 169.02023704295226 362.36 164.226806640625 362.36 C 159.43337623829774 362.36 155.54753391335228 358.473832064 155.54753391335228 353.68 Z" stroke-miterlimit="10"/></g><g transform="translate(-62,-86) scale(1,1)"><path fill="none" stroke="#000000" d="M 164.226806640625 362.36 L 164.226806640625 379.64" stroke-miterlimit="10"/></g><g transform="translate(-62,-86) scale(1,1)"><path fill="none" stroke="#000000" d="M 155.03698845880683 368.84 L 173.41662482244317 368.84" stroke-miterlimit="10"/></g><g transform="translate(-62,-86) scale(1,1)"><path fill="none" stroke="#000000" d="M 164.226806640625 379.64 L 151.46317027698865 397" stroke-miterlimit="10"/></g><g transform="translate(-62,-86) scale(1,1)"><path fill="none" stroke="#000000" d="M 164.226806640625 379.64 L 176.99044300426135 397" stroke-miterlimit="10"/></g><g transform="translate(-62,-86) scale(1,1)"><g><path fill="none" stroke="none"/><text fill="#000000" stroke="none" font-family="Arial" font-size="13px" font-style="normal" font-weight="bold" text-decoration="none" x="128.464111328125" y="417.5">Nutricionista</text></g></g><g transform="translate(-62,-86) scale(1,1)"><path fill="#ffffff" stroke="none" d="M 142.55705539772728 513.6800000000001 C 142.55705539772728 508.88616793600005 146.44289772267274 505 151.236328125 505 C 156.02975852732726 505 159.91560085227272 508.88616793600005 159.91560085227272 513.6800000000001 C 159.91560085227272 518.473832064 156.02975852732726 522.36 151.236328125 522.36 C 146.44289772267274 522.36 142.55705539772728 518.473832064 142.55705539772728 513.6800000000001 Z"/></g><g transform="translate(-62,-86) scale(1,1)"><path fill="none" stroke="#000000" d="M 142.55705539772728 513.6800000000001 C 142.55705539772728 508.88616793600005 146.44289772267274 505 151.236328125 505 C 156.02975852732726 505 159.91560085227272 508.88616793600005 159.91560085227272 513.6800000000001 C 159.91560085227272 518.473832064 156.02975852732726 522.36 151.236328125 522.36 C 146.44289772267274 522.36 142.55705539772728 518.473832064 142.55705539772728 513.6800000000001 Z" stroke-miterlimit="10"/></g><g transform="translate(-62,-86) scale(1,1)"><path fill="none" stroke="#000000" d="M 151.236328125 522.36 L 151.236328125 539.64" stroke-miterlimit="10"/></g><g transform="translate(-62,-86) scale(1,1)"><path fill="none" stroke="#000000" d="M 142.04650994318183 528.84 L 160.42614630681817 528.84" stroke-miterlimit="10"/></g><g transform="translate(-62,-86) scale(1,1)"><path fill="none" stroke="#000000" d="M 151.236328125 539.64 L 138.47269176136365 557" stroke-miterlimit="10"/></g><g transform="translate(-62,-86) scale(1,1)"><path fill="none" stroke="#000000" d="M 151.236328125 539.64 L 163.99996448863635 557" stroke-miterlimit="10"/></g><g transform="translate(-62,-86) scale(1,1)"><g><path fill="none" stroke="none"/><text fill="#000000" stroke="none" font-family="Arial" font-size="13px" font-style="normal" font-weight="bold" text-decoration="none" x="125.94091796875" y="577.5">Paciente</text></g></g><g transform="translate(-62,-86) scale(1,1)"><path fill="#C0C0C0" stroke="none" d="M 415 192 C 415 182.6111584 463.3532416 175 523 175 C 582.6467584 175 631 182.6111584 631 192 C 631 201.3888416 582.6467584 209 523 209 C 463.3532416 209 415 201.3888416 415 192 Z" opacity="0.2"/></g><g transform="translate(-62,-86) scale(1,1)"><path fill="#ffffff" stroke="none" d="M 408 185 C 408 175.6111584 456.3532416 168 516 168 C 575.6467584 168 624 175.6111584 624 185 C 624 194.3888416 575.6467584 202 516 202 C 456.3532416 202 408 194.3888416 408 185 Z"/></g><g transform="translate(-62,-86) scale(1,1)"><path fill="none" stroke="#000000" d="M 408 185 C 408 175.6111584 456.3532416 168 516 168 C 575.6467584 168 624 175.6111584 624 185 C 624 194.3888416 575.6467584 202 516 202 C 456.3532416 202 408 194.3888416 408 185 Z" stroke-miterlimit="10"/></g><g transform="translate(-62,-86) scale(1,1)"><g><path fill="none" stroke="none"/><text fill="#000000" stroke="none" font-family="Arial" font-size="13px" font-style="normal" font-weight="bold" text-decoration="none" x="449.892333984375" y="192">Cadastrar Nutricionista</text></g></g><g transform="translate(-62,-86) scale(1,1)"><path fill="none" stroke="#000000" d="M 219 211 L 407 194" stroke-miterlimit="10"/></g></g></svg>